<svg width="143" height="138" fill="none" xmlns="http://www.w3.org/2000/svg"><g opacity=".1" fill="#949494"><path d="M85 81a26.1 26.1 0 00-37.4-23.5L28 66.7a16.5 16.5 0 00-9.3 17.5 16.5 16.5 0 0014 14h.2c9 1.4 17 6.5 22 14a16.5 16.5 0 0027.2.4c2-3 3.2-6.4 3.1-10L85 81zM40.4 53c3.6.7 7.4-.3 10.5-2.8 3-2.4 5-5.8 5.8-9.8.7-3.9.1-7.9-1.7-11.2-2-3.5-5-5.8-8.7-6.5C39 21.3 31.7 27 30 35.2c-1.3 6.7 1.4 13 6.3 16.1a12 12 0 004 1.6z"/><path d="M67.2 52.9c7.4 4.6 17.7 1.6 23-6.9 5.3-8.4 3.6-19-3.8-23.7-7.4-4.6-17.7-1.5-23 6.9-5.3 8.4-3.6 19 3.8 23.7zM88 71.2c.9 1 2 2 3 2.7 5.5 3.4 13.2 2.8 19-2 3.3-2.8 5.5-6.5 6.3-10.5.7-4.2-.3-8.2-2.8-11.2-2.5-3.1-6.3-4.8-10.5-5-4.1 0-8.2 1.5-11.5 4.2-7 5.8-8.6 15.6-3.5 21.8zM117.3 87.1c-2.7-7-11.3-10.1-19.2-7-8 3-12.1 11.3-9.4 18.2 1 2.6 2.8 4.6 5 6 4 2.5 9.2 3 14.3 1 7.9-3 12-11.2 9.3-18.2z"/></g></svg>